<?xml version="1.0" encoding="UTF-8" standalone="no"?>
<!-- Created with Inkscape (http://www.inkscape.org/) -->

<svg
   xmlns:dc="http://purl.org/dc/elements/1.1/"
   xmlns:cc="http://creativecommons.org/ns#"
   xmlns:rdf="http://www.w3.org/1999/02/22-rdf-syntax-ns#"
   xmlns:svg="http://www.w3.org/2000/svg"
   xmlns="http://www.w3.org/2000/svg"
   xmlns:sodipodi="http://sodipodi.sourceforge.net/DTD/sodipodi-0.dtd"
   xmlns:inkscape="http://www.inkscape.org/namespaces/inkscape"
   width="310"
   height="200"
   version="1.1"
   id="svg8"
   inkscape:version="0.92.1 r15371"
   sodipodi:docname="mpv-vlc.svg"
   style="enable-background:new"
   inkscape:export-filename="/home/tux/src/mpc-qt/mpc-qt/image-sources/blank-screen-mpv.png"
   inkscape:export-xdpi="90"
   inkscape:export-ydpi="90"
   viewBox="0 0 310 200">
  <defs
     id="defs2" />
  <sodipodi:namedview
     id="base"
     pagecolor="#000000"
     bordercolor="#666666"
     borderopacity="1.0"
     inkscape:pageopacity="1"
     inkscape:pageshadow="2"
     inkscape:zoom="5.6568542"
     inkscape:cx="200.35925"
     inkscape:cy="57.957861"
     inkscape:document-units="px"
     inkscape:current-layer="layer2"
     showgrid="true"
     fit-margin-top="0"
     fit-margin-left="0"
     fit-margin-right="0"
     fit-margin-bottom="0"
     inkscape:object-nodes="true"
     inkscape:window-width="1920"
     inkscape:window-height="1015"
     inkscape:window-x="0"
     inkscape:window-y="0"
     inkscape:window-maximized="1"
     units="px"
     viewbox-width="310">
    <inkscape:grid
       type="xygrid"
       id="grid4516"
       originx="0"
       originy="0"
       empspacing="10" />
  </sodipodi:namedview>
  <metadata
     id="metadata5">
    <rdf:RDF>
      <cc:Work
         rdf:about="">
        <dc:format>image/svg+xml</dc:format>
        <dc:type
           rdf:resource="http://purl.org/dc/dcmitype/StillImage" />
        <dc:title />
      </cc:Work>
    </rdf:RDF>
  </metadata>
  <g
     inkscape:groupmode="layer"
     id="layer3"
     inkscape:label="Text"
     style="display:inline"
     transform="translate(-19.843763,-10.63797)" />
  <g
     inkscape:groupmode="layer"
     id="layer2"
     inkscape:label="Vector"
     style="display:inline;opacity:1"
     transform="translate(-19.843763,-10.63797)">
    <g
       transform="matrix(1.0000156,0,0,1.0500106,22.416743,-894.36739)"
       style="display:inline;enable-background:new"
       id="g4880">
      <text
         xml:space="preserve"
         style="color:#000000;font-style:normal;font-variant:normal;font-weight:600;font-stretch:normal;line-height:0%;font-family:'Source Sans Pro';-inkscape-font-specification:'Source Sans Pro Semi-Bold';text-indent:0;text-align:center;text-decoration:none;text-decoration-line:none;letter-spacing:6px;word-spacing:0px;text-transform:none;writing-mode:lr-tb;direction:ltr;baseline-shift:baseline;text-anchor:middle;display:inline;overflow:visible;visibility:visible;fill:#868686;fill-opacity:1;fill-rule:nonzero;stroke:none;stroke-width:1px;stroke-linecap:butt;stroke-linejoin:miter;stroke-opacity:1;marker:none;enable-background:accumulate"
         x="152"
         y="1002.3622"
         id="text4138"><tspan
           sodipodi:role="line"
           id="tspan4140"
           x="152"
           y="1002.3622"
           style="font-size:15px;line-height:1;letter-spacing:0px">M U L T I   P U R P O S E   V E H I C L E</tspan></text>
      <text
         xml:space="preserve"
         style="color:#000000;font-style:normal;font-variant:normal;font-weight:bold;font-stretch:normal;line-height:0%;font-family:'Source Sans Pro';-inkscape-font-specification:'Source Sans Pro Bold';text-indent:0;text-align:center;text-decoration:none;text-decoration-line:none;letter-spacing:4px;word-spacing:0px;text-transform:none;writing-mode:lr-tb;direction:ltr;baseline-shift:baseline;text-anchor:middle;display:inline;overflow:visible;visibility:visible;fill:#868686;fill-opacity:1;fill-rule:nonzero;stroke:none;stroke-width:1px;stroke-linecap:butt;stroke-linejoin:miter;stroke-opacity:1;marker:none;enable-background:accumulate"
         x="153"
         y="1022.3622"
         id="text4142"><tspan
           sodipodi:role="line"
           id="tspan4144"
           x="153"
           y="1022.3622"
           style="font-size:11.25px;line-height:2;letter-spacing:0px">L A R G E   V A N - L I K E   C A R</tspan></text>
    </g>
    <path
       style="fill:#520053;fill-opacity:1;stroke:none;stroke-width:0.69056219px;stroke-linecap:butt;stroke-linejoin:miter;stroke-opacity:1"
       d="m 54.321977,85.885679 c -0.300854,-6.507536 0.57,-12.250007 2.346687,-15.036834 2.287257,-0.910475 1.114311,-2.669092 2.521545,-5.196094 0.937321,-1.683183 3.305027,-4.433836 6.240325,-6.287333 6.247082,-3.944729 19.92032,-7.293843 31.221143,-8.262561 1.731627,-0.148423 8.330353,-3.040301 12.421993,-5.567498 4.09166,-2.527201 23.22617,-13.015079 41.75896,-17.564035 18.5328,-4.548959 34.69649,-5.143749 50.10036,-5.396466 15.40388,-0.252717 62.90581,0.762647 82.8827,4.048011 -0.12023,3.917151 -0.78221,14.973646 -3.30942,18.006289 -2.52718,3.032638 9.74777,6.444356 11.55293,6.191639 1.80513,-0.252717 2.70769,0 3.36958,0.06322 0.12049,1.010879 0.18059,8.845194 0.8424,9.856074 0.66189,1.010879 2.46704,3.727618 2.64756,6.065277 0.18058,2.337659 0.56515,6.280602 0.4462,8.368719 -0.8424,2.400842 -9.00336,9.294973 -11.72641,9.69705 -2.72305,0.402073 -223.204747,16.306373 -227.459507,10.587973 -3.111951,-4.182461 -2.464765,-6.027842 -3.14969,-7.437393 -0.25153,-0.517633 -2.707228,-2.135998 -2.707228,-2.135998 z"
       id="path4505"
       inkscape:connector-curvature="0"
       sodipodi:nodetypes="ccsssssscccccccssscc" />
    <path
       style="fill:#242424;fill-opacity:1;stroke:none;stroke-width:0.69056219px;stroke-linecap:butt;stroke-linejoin:miter;stroke-opacity:1"
       d="M 61.071144,101.22082 C 52.731811,96.574623 55.114476,84.601732 55.28467,82.636032 c 0.170194,-1.965703 12.764279,6.433197 15.657518,11.794188 5.159376,-0.123144 32.071252,-1.412635 65.344952,-3.043 2.96645,-0.145368 3.4306,-5.29701 6.48727,-5.447196 23.47194,-1.153259 51.15452,-2.789176 74.36539,-3.928061 2.93176,-0.14386 6.50279,5.075518 9.34164,4.936655 34.22866,-1.674305 60.98127,-2.947176 62.81507,-2.882993 1.5317,-6.075797 6.53568,-8.182888 10.08376,-9.158368 -0.0261,6.35121 2.16995,18.093367 -14.6789,19.165568 -16.84886,1.072202 -223.630226,7.147995 -223.630226,7.147995 z"
       id="path3692"
       inkscape:connector-curvature="0"
       sodipodi:nodetypes="cccssssccsc" />
    <path
       style="fill:#242424;fill-opacity:1;stroke:none;stroke-width:0.69056219px;stroke-linecap:butt;stroke-linejoin:miter;stroke-opacity:1"
       d="m 105.44955,51.856281 c 25.01799,-11.972891 41.69666,-21.622692 59.39646,-23.767091 17.69981,-2.144399 96.32778,-1.429604 110.96415,1.250901 -5.78647,9.471094 -15.9979,2.144395 -25.52855,8.398896 -9.53067,6.254493 -8.16914,5.539695 -19.57191,6.075794 -11.40275,0.536102 -110.1132,6.969299 -125.26015,8.0415 z"
       id="path4499"
       inkscape:connector-curvature="0" />
    <path
       style="fill:#242424;fill-opacity:1;stroke:none;stroke-width:0.69056219px;stroke-linecap:butt;stroke-linejoin:miter;stroke-opacity:1"
       d="m 57.96642,70.262377 c 10.892188,-1.787003 16.678662,-3.752699 18.720946,-4.288805 1.872095,-2.323095 10.721998,-10.185892 13.104663,-11.615497 -8.169139,0.89351 -17.699802,2.144399 -23.656467,6.075802 -5.956668,3.931399 -8.169142,9.8285 -8.169142,9.8285 z"
       id="path4501"
       inkscape:connector-curvature="0" />
    <path
       style="fill:#242424;fill-opacity:1;stroke:none;stroke-width:0.69056219px;stroke-linecap:butt;stroke-linejoin:miter;stroke-opacity:1"
       d="m 295.0417,50.96278 c -9.02009,0.714798 -17.52962,-0.357408 -19.7421,-0.357408 -2.04228,-1.429592 -3.91438,-2.14439 -5.10572,-2.859197 4.08457,-1.608296 9.1903,-3.037893 9.70086,-5.182295 0.51057,-2.144399 2.89322,-8.756296 3.57399,-11.9729 6.80763,6.433205 10.89218,14.117302 11.57297,20.3718 z"
       id="path4503"
       inkscape:connector-curvature="0" />
    <ellipse
       style="fill:#181818;fill-opacity:1;stroke:none;stroke-width:0.69056219;stroke-opacity:1"
       id="path4509"
       cx="101.36497"
       cy="93.135941"
       rx="21.103615"
       ry="22.158794" />
    <ellipse
       style="fill:#191919;fill-opacity:1;stroke:none;stroke-width:0.69056219;stroke-opacity:1"
       id="path4511"
       cx="259.81229"
       cy="90.455452"
       rx="21.614185"
       ry="22.694893" />
  </g>
</svg>
