<?xml version="1.0" encoding="UTF-8" standalone="no"?>
<!-- Created with Inkscape (http://www.inkscape.org/) -->

<svg
   width="16"
   height="16"
   viewBox="0 0 16 16"
   version="1.1"
   id="svg1430"
   inkscape:version="1.4 (e7c3feb100, 2024-10-09)"
   sodipodi:docname="view-media-subtitles.svg"
   xmlns:inkscape="http://www.inkscape.org/namespaces/inkscape"
   xmlns:sodipodi="http://sodipodi.sourceforge.net/DTD/sodipodi-0.dtd"
   xmlns="http://www.w3.org/2000/svg"
   xmlns:svg="http://www.w3.org/2000/svg"
   xmlns:rdf="http://www.w3.org/1999/02/22-rdf-syntax-ns#"
   xmlns:cc="http://creativecommons.org/ns#"
   xmlns:dc="http://purl.org/dc/elements/1.1/">
  <defs
     id="defs1424" />
  <sodipodi:namedview
     id="base"
     pagecolor="#2a2a2a"
     bordercolor="#666666"
     borderopacity="1.0"
     inkscape:pageopacity="0.0"
     inkscape:pageshadow="2"
     inkscape:zoom="1"
     inkscape:cx="8"
     inkscape:cy="8"
     inkscape:document-units="px"
     inkscape:current-layer="layer1"
     showgrid="false"
     units="px"
     inkscape:pagecheckerboard="true"
     inkscape:object-paths="true"
     inkscape:window-width="1920"
     inkscape:window-height="1012"
     inkscape:window-x="0"
     inkscape:window-y="0"
     inkscape:window-maximized="1"
     inkscape:snap-bbox="true"
     inkscape:bbox-nodes="true"
     inkscape:snap-nodes="true"
     inkscape:showpageshadow="0"
     inkscape:deskcolor="#505050">
    <inkscape:grid
       type="xygrid"
       id="grid1978"
       empspacing="4"
       originx="0"
       originy="0"
       spacingy="1"
       spacingx="1"
       units="px"
       visible="false" />
  </sodipodi:namedview>
  <metadata
     id="metadata1427">
    <rdf:RDF>
      <cc:Work
         rdf:about="">
        <dc:format>image/svg+xml</dc:format>
        <dc:type
           rdf:resource="http://purl.org/dc/dcmitype/StillImage" />
      </cc:Work>
    </rdf:RDF>
  </metadata>
  <g
     inkscape:label="Layer 1"
     inkscape:groupmode="layer"
     id="layer1"
     transform="translate(0,-292.76665)">
    <path
       id="rect1"
       style="fill:#ffffff;fill-opacity:1;stroke:none;stroke-width:8;stroke-linejoin:bevel"
       d="M 3 296.76665 C 2.446 296.76665 2 297.21266 2 297.76665 L 2 303.76665 C 2 304.32064 2.446 304.76665 3 304.76665 L 12 304.76665 C 12.554 304.76665 13 304.32064 13 303.76665 L 13 297.76665 C 13 297.21266 12.554 296.76665 12 296.76665 L 3 296.76665 z M 3 300.76665 L 5 300.76665 L 5 301.76665 L 3 301.76665 L 3 300.76665 z M 6 300.76665 L 9 300.76665 L 9 301.76665 L 6 301.76665 L 6 300.76665 z M 10 300.76665 L 12 300.76665 L 12 301.76665 L 10 301.76665 L 10 300.76665 z M 3 302.76665 L 4 302.76665 L 4 303.76665 L 3 303.76665 L 3 302.76665 z M 5 302.76665 L 8 302.76665 L 8 303.76665 L 5 303.76665 L 5 302.76665 z M 9 302.76665 L 12 302.76665 L 12 303.76665 L 9 303.76665 L 9 302.76665 z " />
  </g>
</svg>
