<?xml version="1.0" encoding="UTF-8" standalone="no"?>
<!-- Created with Inkscape (http://www.inkscape.org/) -->

<svg
   xmlns:dc="http://purl.org/dc/elements/1.1/"
   xmlns:cc="http://creativecommons.org/ns#"
   xmlns:rdf="http://www.w3.org/1999/02/22-rdf-syntax-ns#"
   xmlns:svg="http://www.w3.org/2000/svg"
   xmlns="http://www.w3.org/2000/svg"
   xmlns:sodipodi="http://sodipodi.sourceforge.net/DTD/sodipodi-0.dtd"
   xmlns:inkscape="http://www.inkscape.org/namespaces/inkscape"
   width="310"
   height="200"
   viewBox="0 0 82.020831 52.916667"
   version="1.1"
   id="svg8"
   inkscape:version="0.92.1 r15371"
   sodipodi:docname="blank-screen-mpv.svg"
   style="enable-background:new"
   inkscape:export-filename="/home/tux/src/mpc-qt/mpc-qt/image-sources/blank-screen-mpv.png"
   inkscape:export-xdpi="90"
   inkscape:export-ydpi="90">
  <defs
     id="defs2" />
  <sodipodi:namedview
     id="base"
     pagecolor="#000000"
     bordercolor="#666666"
     borderopacity="1.0"
     inkscape:pageopacity="1"
     inkscape:pageshadow="2"
     inkscape:zoom="2.8"
     inkscape:cx="-43.970254"
     inkscape:cy="129.11664"
     inkscape:document-units="mm"
     inkscape:current-layer="layer3"
     showgrid="true"
     fit-margin-top="0"
     fit-margin-left="0"
     fit-margin-right="0"
     fit-margin-bottom="0"
     inkscape:object-nodes="true"
     inkscape:window-width="1920"
     inkscape:window-height="1015"
     inkscape:window-x="0"
     inkscape:window-y="0"
     inkscape:window-maximized="1"
     units="px">
    <inkscape:grid
       type="xygrid"
       id="grid4516"
       originx="0"
       originy="0"
       empspacing="10" />
  </sodipodi:namedview>
  <metadata
     id="metadata5">
    <rdf:RDF>
      <cc:Work
         rdf:about="">
        <dc:format>image/svg+xml</dc:format>
        <dc:type
           rdf:resource="http://purl.org/dc/dcmitype/StillImage" />
        <dc:title />
      </cc:Work>
    </rdf:RDF>
  </metadata>
  <g
     inkscape:groupmode="layer"
     id="layer3"
     inkscape:label="Text"
     style="display:inline"
     transform="translate(-19.843763,-10.63797)">
    <g
       transform="matrix(0.26458478,0,0,0.26458333,20.524524,-214.88695)"
       style="display:inline"
       id="g4880">
      <text
         xml:space="preserve"
         style="color:#000000;font-style:normal;font-variant:normal;font-weight:600;font-stretch:normal;line-height:0%;font-family:'Source Sans Pro';-inkscape-font-specification:'Source Sans Pro Semi-Bold';text-indent:0;text-align:center;text-decoration:none;text-decoration-line:none;letter-spacing:6px;word-spacing:0px;text-transform:none;writing-mode:lr-tb;direction:ltr;baseline-shift:baseline;text-anchor:middle;display:inline;overflow:visible;visibility:visible;fill:#868686;fill-opacity:1;fill-rule:nonzero;stroke:none;stroke-width:1px;stroke-linecap:butt;stroke-linejoin:miter;stroke-opacity:1;marker:none;enable-background:accumulate"
         x="152"
         y="1002.3622"
         id="text4138"><tspan
           sodipodi:role="line"
           id="tspan4140"
           x="155"
           y="1002.3622"
           style="font-size:15px;line-height:1">MULTI PURPOSE VEHICLE</tspan></text>
      <text
         xml:space="preserve"
         style="color:#000000;font-style:normal;font-variant:normal;font-weight:bold;font-stretch:normal;line-height:0%;font-family:'Source Sans Pro';-inkscape-font-specification:'Source Sans Pro Bold';text-indent:0;text-align:center;text-decoration:none;text-decoration-line:none;letter-spacing:4px;word-spacing:0px;text-transform:none;writing-mode:lr-tb;direction:ltr;baseline-shift:baseline;text-anchor:middle;display:inline;overflow:visible;visibility:visible;fill:#868686;fill-opacity:1;fill-rule:nonzero;stroke:none;stroke-width:1px;stroke-linecap:butt;stroke-linejoin:miter;stroke-opacity:1;marker:none;enable-background:accumulate"
         x="153"
         y="1022.3622"
         id="text4142"><tspan
           sodipodi:role="line"
           id="tspan4144"
           x="155"
           y="1022.3622"
           style="font-size:11.25px;line-height:2">LARGE VAN-LIKE CAR</tspan></text>
    </g>
  </g>
  <g
     inkscape:groupmode="layer"
     id="layer2"
     inkscape:label="Vector"
     style="display:inline;opacity:1"
     transform="translate(-19.843763,-10.63797)">
    <path
       style="fill:#520053;fill-opacity:1;stroke:none;stroke-width:0.1783061px;stroke-linecap:butt;stroke-linejoin:miter;stroke-opacity:1"
       d="m 28.966031,32.118757 c -0.0796,-1.639779 0.150811,-3.086776 0.620888,-3.789005 0.605164,-0.229423 0.294825,-0.672562 0.667152,-1.30932 0.247997,-0.424131 0.874446,-1.117245 1.651069,-1.584292 1.652857,-0.993999 5.270531,-1.837914 8.26051,-2.082013 0.458155,-0.0374 2.20405,-0.7661 3.28662,-1.402907 1.082573,-0.636808 6.145194,-3.27956 11.048611,-4.425813 4.903419,-1.146254 9.180018,-1.29613 13.255586,-1.35981 4.075567,-0.06368 16.643659,0.192173 21.929157,1.020024 -0.03181,0.98705 -0.206958,3.773083 -0.875608,4.537253 -0.668643,0.764169 2.579071,1.623859 3.05668,1.560179 0.477602,-0.06368 0.716403,0 0.891526,0.01593 0.03188,0.254723 0.04778,2.228826 0.222883,2.483549 0.175123,0.254723 0.652732,0.939291 0.700492,1.528338 0.04778,0.589047 0.149528,1.582596 0.118056,2.108763 -0.222883,0.604968 -2.382113,2.342162 -3.10258,2.443478 -0.720466,0.101315 -59.055654,4.108905 -60.181381,2.667974 -0.823362,-1.053903 -0.652129,-1.518905 -0.833347,-1.874086 -0.06655,-0.130434 -0.71628,-0.538232 -0.71628,-0.538232 z"
       id="path4505"
       inkscape:connector-curvature="0"
       sodipodi:nodetypes="ccsssssscccccccssscc" />
    <path
       style="fill:#242424;fill-opacity:1;stroke:none;stroke-width:0.1783061px;stroke-linecap:butt;stroke-linejoin:miter;stroke-opacity:1"
       d="m 30.75173,35.98293 c -2.206426,-1.170756 -1.576019,-4.187704 -1.530989,-4.683024 0.04503,-0.495321 3.377181,1.621047 4.142676,2.971918 1.365071,-0.03103 8.485433,-0.355958 17.28901,-0.76678 0.784864,-0.03663 0.907669,-1.334749 1.716405,-1.372593 6.210221,-0.2906 13.534496,-0.702821 19.675643,-0.989799 0.775685,-0.03625 1.720512,1.278937 2.471616,1.243946 9.056242,-0.421894 16.134462,-0.742634 16.619652,-0.726461 0.405258,-1.530989 1.729214,-2.061937 2.667967,-2.30774 -0.0069,1.600388 0.574127,4.559195 -3.883753,4.82937 C 85.462075,34.451942 30.75173,35.98293 30.75173,35.98293 Z"
       id="path3692"
       inkscape:connector-curvature="0"
       sodipodi:nodetypes="cccssssccsc" />
    <path
       style="fill:#242424;fill-opacity:1;stroke:none;stroke-width:0.1783061px;stroke-linecap:butt;stroke-linejoin:miter;stroke-opacity:1"
       d="m 42.493396,23.543976 c 6.619277,-3.016948 11.032129,-5.44852 15.715153,-5.988869 4.683027,-0.540349 25.486467,-0.360234 29.358967,0.315204 -1.530988,2.386541 -4.232734,0.540348 -6.754362,2.116367 -2.52163,1.576017 -2.161396,1.395901 -5.178346,1.530988 -3.016948,0.135088 -29.133822,1.756135 -33.141412,2.02631 z"
       id="path4499"
       inkscape:connector-curvature="0" />
    <path
       style="fill:#242424;fill-opacity:1;stroke:none;stroke-width:0.1783061px;stroke-linecap:butt;stroke-linejoin:miter;stroke-opacity:1"
       d="m 29.93028,28.181973 c 2.881862,-0.450292 4.412851,-0.945611 4.9532,-1.0807 0.49532,-0.585377 2.836833,-2.566657 3.46724,-2.926891 -2.161396,0.225148 -4.683025,0.540349 -6.259043,1.53099 -1.576019,0.99064 -2.161397,2.476601 -2.161397,2.476601 z"
       id="path4501"
       inkscape:connector-curvature="0" />
    <path
       style="fill:#242424;fill-opacity:1;stroke:none;stroke-width:0.1783061px;stroke-linecap:butt;stroke-linejoin:miter;stroke-opacity:1"
       d="m 92.655808,23.31883 c -2.386541,0.180116 -4.637997,-0.09006 -5.223377,-0.09006 -0.540349,-0.360231 -1.03567,-0.540347 -1.350874,-0.720465 1.080698,-0.405261 2.431574,-0.765493 2.56666,-1.305843 0.135085,-0.540349 0.76549,-2.206425 0.945607,-3.01695 1.801167,1.621049 2.88186,3.5573 3.061984,5.133318 z"
       id="path4503"
       inkscape:connector-curvature="0" />
    <circle
       style="fill:#181818;fill-opacity:1;stroke:none;stroke-width:0.1783061;stroke-opacity:1"
       id="path4509"
       cx="41.412697"
       cy="33.94569"
       r="5.5836077" />
    <circle
       style="fill:#191919;fill-opacity:1;stroke:none;stroke-width:0.1783061;stroke-opacity:1"
       id="path4511"
       cx="83.334785"
       cy="33.270256"
       r="5.7186947" />
  </g>
</svg>
