<?xml version="1.0" encoding="UTF-8" standalone="no"?>
<!-- Created with Inkscape (http://www.inkscape.org/) -->

<svg
   width="16"
   height="16"
   viewBox="0 0 16 16"
   version="1.1"
   id="svg1430"
   inkscape:version="1.4 (e7c3feb100, 2024-10-09)"
   sodipodi:docname="view-media-subtitles-hidden.svg"
   xmlns:inkscape="http://www.inkscape.org/namespaces/inkscape"
   xmlns:sodipodi="http://sodipodi.sourceforge.net/DTD/sodipodi-0.dtd"
   xmlns="http://www.w3.org/2000/svg"
   xmlns:svg="http://www.w3.org/2000/svg"
   xmlns:rdf="http://www.w3.org/1999/02/22-rdf-syntax-ns#"
   xmlns:cc="http://creativecommons.org/ns#"
   xmlns:dc="http://purl.org/dc/elements/1.1/">
  <defs
     id="defs1424" />
  <sodipodi:namedview
     id="base"
     pagecolor="#ffffff"
     bordercolor="#666666"
     borderopacity="1.0"
     inkscape:pageopacity="0.0"
     inkscape:pageshadow="2"
     inkscape:zoom="45.254834"
     inkscape:cx="7.7339804"
     inkscape:cy="9.6122328"
     inkscape:document-units="px"
     inkscape:current-layer="layer1"
     showgrid="true"
     units="px"
     inkscape:pagecheckerboard="true"
     inkscape:object-paths="true"
     inkscape:window-width="1920"
     inkscape:window-height="1012"
     inkscape:window-x="0"
     inkscape:window-y="0"
     inkscape:window-maximized="1"
     inkscape:snap-bbox="true"
     inkscape:bbox-nodes="true"
     inkscape:snap-nodes="true"
     inkscape:showpageshadow="0"
     inkscape:deskcolor="#505050">
    <inkscape:grid
       type="xygrid"
       id="grid1978"
       empspacing="4"
       originx="0"
       originy="0"
       spacingy="1"
       spacingx="1"
       units="px"
       visible="true" />
  </sodipodi:namedview>
  <metadata
     id="metadata1427">
    <rdf:RDF>
      <cc:Work
         rdf:about="">
        <dc:format>image/svg+xml</dc:format>
        <dc:type
           rdf:resource="http://purl.org/dc/dcmitype/StillImage" />
      </cc:Work>
    </rdf:RDF>
  </metadata>
  <g
     inkscape:label="Layer 1"
     inkscape:groupmode="layer"
     id="layer1"
     transform="translate(0,-292.76665)">
    <path
       id="path8"
       style="stroke-width:2;fill:#fcfcfc;fill-opacity:1"
       d="M 3 293.76665 C 1.338 293.76665 0 295.10465 0 296.76665 L 0 304.76665 C 0 306.42865 1.338 307.76665 3 307.76665 L 13 307.76665 C 14.662 307.76665 16 306.42865 16 304.76665 L 16 296.76665 C 16 295.10465 14.662 293.76665 13 293.76665 L 3 293.76665 z M 5 294.76665 L 8 297.76665 L 11 294.76665 L 13 296.76665 L 10 299.76665 L 13 302.76665 L 12 303.76665 L 11 304.76665 L 13 304.76665 L 13 305.76665 L 10 305.76665 L 10 304.76665 L 11 304.76665 L 10 303.76665 L 8 303.76665 L 8 302.76665 L 9 302.76665 L 8 301.76665 L 7 302.76665 L 7 303.76665 L 6 303.76665 L 5 304.76665 L 5 305.76665 L 3 305.76665 L 3 304.76665 L 5 304.76665 L 4 303.76665 L 3 302.76665 L 6 299.76665 L 3 296.76665 L 5 294.76665 z M 6 304.76665 L 9 304.76665 L 9 305.76665 L 6 305.76665 L 6 304.76665 z " />
  </g>
</svg>
